<mxfile host="app.diagrams.net" modified="2024-05-22T16:47:28.195Z" agent="Mozilla/5.0 (Windows NT 10.0; Win64; x64) AppleWebKit/537.36 (KHTML, like Gecko) Chrome/124.0.0.0 Safari/537.36" etag="ye8IRFW5My3HtSHS591t" version="24.4.6" type="device">
  <diagram name="Page-1" id="HQFWCCPoo5oSGpoPkfE-">
    <mxGraphModel dx="2152" dy="675" grid="1" gridSize="10" guides="1" tooltips="1" connect="1" arrows="1" fold="1" page="1" pageScale="1" pageWidth="850" pageHeight="1100" math="0" shadow="0">
      <root>
        <mxCell id="0" />
        <mxCell id="1" parent="0" />
        <mxCell id="gwLwsPkfwwdDwYfIKPdV-20" value="Login response" style="edgeStyle=orthogonalEdgeStyle;rounded=0;orthogonalLoop=1;jettySize=auto;html=1;entryX=0.25;entryY=1;entryDx=0;entryDy=0;" parent="1" source="gwLwsPkfwwdDwYfIKPdV-7" target="gwLwsPkfwwdDwYfIKPdV-14" edge="1">
          <mxGeometry relative="1" as="geometry">
            <Array as="points">
              <mxPoint x="445" y="470" />
              <mxPoint x="-55" y="470" />
            </Array>
          </mxGeometry>
        </mxCell>
        <mxCell id="gwLwsPkfwwdDwYfIKPdV-26" value="Track orders" style="edgeStyle=orthogonalEdgeStyle;rounded=0;orthogonalLoop=1;jettySize=auto;html=1;" parent="1" source="gwLwsPkfwwdDwYfIKPdV-7" target="gwLwsPkfwwdDwYfIKPdV-8" edge="1">
          <mxGeometry relative="1" as="geometry">
            <Array as="points">
              <mxPoint x="420" y="200" />
              <mxPoint x="420" y="200" />
            </Array>
          </mxGeometry>
        </mxCell>
        <mxCell id="gwLwsPkfwwdDwYfIKPdV-7" value="&lt;b style=&quot;font-size: 15px;&quot;&gt;&lt;font style=&quot;font-size: 15px;&quot;&gt;Online Dairy&lt;/font&gt;&lt;/b&gt;&lt;div style=&quot;font-size: 15px;&quot;&gt;&lt;b&gt;&lt;font style=&quot;font-size: 15px;&quot;&gt;Products&lt;/font&gt;&lt;/b&gt;&lt;/div&gt;" style="shape=ellipse;html=1;dashed=0;whiteSpace=wrap;aspect=fixed;perimeter=ellipsePerimeter;" parent="1" vertex="1">
          <mxGeometry x="365" y="290" width="160" height="160" as="geometry" />
        </mxCell>
        <mxCell id="gwLwsPkfwwdDwYfIKPdV-8" value="Admin" style="html=1;dashed=0;whiteSpace=wrap;fontStyle=1" parent="1" vertex="1">
          <mxGeometry x="330" y="120" width="230" height="50" as="geometry" />
        </mxCell>
        <mxCell id="gwLwsPkfwwdDwYfIKPdV-12" value="Manage all products" style="edgeStyle=orthogonalEdgeStyle;rounded=0;orthogonalLoop=1;jettySize=auto;html=1;" parent="1" target="gwLwsPkfwwdDwYfIKPdV-7" edge="1">
          <mxGeometry relative="1" as="geometry">
            <mxPoint x="480" y="170" as="sourcePoint" />
            <mxPoint x="480.44000000000005" y="295.4" as="targetPoint" />
            <Array as="points">
              <mxPoint x="520" y="170" />
              <mxPoint x="520" y="231" />
              <mxPoint x="470" y="231" />
            </Array>
          </mxGeometry>
        </mxCell>
        <mxCell id="gwLwsPkfwwdDwYfIKPdV-15" value="Login" style="edgeStyle=orthogonalEdgeStyle;rounded=0;orthogonalLoop=1;jettySize=auto;html=1;" parent="1" source="gwLwsPkfwwdDwYfIKPdV-14" target="gwLwsPkfwwdDwYfIKPdV-7" edge="1">
          <mxGeometry relative="1" as="geometry" />
        </mxCell>
        <mxCell id="gwLwsPkfwwdDwYfIKPdV-17" value="Add to cart" style="edgeStyle=orthogonalEdgeStyle;rounded=0;orthogonalLoop=1;jettySize=auto;html=1;entryX=0;entryY=1;entryDx=0;entryDy=0;" parent="1" source="gwLwsPkfwwdDwYfIKPdV-14" target="gwLwsPkfwwdDwYfIKPdV-7" edge="1">
          <mxGeometry relative="1" as="geometry">
            <Array as="points">
              <mxPoint x="-10" y="427" />
            </Array>
          </mxGeometry>
        </mxCell>
        <mxCell id="gwLwsPkfwwdDwYfIKPdV-14" value="Reg_users" style="html=1;dashed=0;whiteSpace=wrap;fontStyle=1" parent="1" vertex="1">
          <mxGeometry x="-210" y="345" width="180" height="50" as="geometry" />
        </mxCell>
        <mxCell id="gwLwsPkfwwdDwYfIKPdV-16" value="Billing" style="edgeStyle=orthogonalEdgeStyle;rounded=0;orthogonalLoop=1;jettySize=auto;html=1;" parent="1" source="gwLwsPkfwwdDwYfIKPdV-14" edge="1">
          <mxGeometry relative="1" as="geometry">
            <mxPoint x="380" y="320" as="targetPoint" />
            <Array as="points">
              <mxPoint x="-10" y="319" />
            </Array>
          </mxGeometry>
        </mxCell>
        <mxCell id="gwLwsPkfwwdDwYfIKPdV-19" value="View product" style="edgeStyle=orthogonalEdgeStyle;rounded=0;orthogonalLoop=1;jettySize=auto;html=1;entryX=0.059;entryY=0.734;entryDx=0;entryDy=0;entryPerimeter=0;" parent="1" source="gwLwsPkfwwdDwYfIKPdV-14" target="gwLwsPkfwwdDwYfIKPdV-7" edge="1">
          <mxGeometry relative="1" as="geometry">
            <Array as="points">
              <mxPoint x="50" y="407" />
            </Array>
          </mxGeometry>
        </mxCell>
        <mxCell id="gwLwsPkfwwdDwYfIKPdV-22" value="Login" style="edgeStyle=orthogonalEdgeStyle;rounded=0;orthogonalLoop=1;jettySize=auto;html=1;entryX=1;entryY=0.5;entryDx=0;entryDy=0;" parent="1" source="gwLwsPkfwwdDwYfIKPdV-21" target="gwLwsPkfwwdDwYfIKPdV-7" edge="1">
          <mxGeometry relative="1" as="geometry" />
        </mxCell>
        <mxCell id="gwLwsPkfwwdDwYfIKPdV-21" value="Reg_vendor" style="html=1;dashed=0;whiteSpace=wrap;fontStyle=1" parent="1" vertex="1">
          <mxGeometry x="860" y="345" width="180" height="50" as="geometry" />
        </mxCell>
        <mxCell id="gwLwsPkfwwdDwYfIKPdV-23" value="Add/updateproduct" style="edgeStyle=orthogonalEdgeStyle;rounded=0;orthogonalLoop=1;jettySize=auto;html=1;entryX=0.914;entryY=0.189;entryDx=0;entryDy=0;entryPerimeter=0;" parent="1" source="gwLwsPkfwwdDwYfIKPdV-21" target="gwLwsPkfwwdDwYfIKPdV-7" edge="1">
          <mxGeometry relative="1" as="geometry">
            <Array as="points">
              <mxPoint x="950" y="320" />
            </Array>
          </mxGeometry>
        </mxCell>
        <mxCell id="gwLwsPkfwwdDwYfIKPdV-24" value="View product list" style="edgeStyle=orthogonalEdgeStyle;rounded=0;orthogonalLoop=1;jettySize=auto;html=1;entryX=0.929;entryY=0.779;entryDx=0;entryDy=0;entryPerimeter=0;" parent="1" source="gwLwsPkfwwdDwYfIKPdV-21" target="gwLwsPkfwwdDwYfIKPdV-7" edge="1">
          <mxGeometry relative="1" as="geometry">
            <Array as="points">
              <mxPoint x="950" y="415" />
            </Array>
          </mxGeometry>
        </mxCell>
        <mxCell id="gwLwsPkfwwdDwYfIKPdV-25" value="login response" style="edgeStyle=orthogonalEdgeStyle;rounded=0;orthogonalLoop=1;jettySize=auto;html=1;entryX=0.631;entryY=1.008;entryDx=0;entryDy=0;entryPerimeter=0;" parent="1" source="gwLwsPkfwwdDwYfIKPdV-7" target="gwLwsPkfwwdDwYfIKPdV-21" edge="1">
          <mxGeometry relative="1" as="geometry">
            <Array as="points">
              <mxPoint x="470" y="470" />
              <mxPoint x="974" y="470" />
            </Array>
          </mxGeometry>
        </mxCell>
        <mxCell id="gwLwsPkfwwdDwYfIKPdV-27" value="&lt;b&gt;&lt;font style=&quot;font-size: 15px;&quot;&gt;FIG:DFD LEVEL 0&lt;/font&gt;&lt;/b&gt;" style="text;html=1;align=center;verticalAlign=middle;resizable=0;points=[];autosize=1;strokeColor=none;fillColor=none;" parent="1" vertex="1">
          <mxGeometry x="385" y="530" width="150" height="30" as="geometry" />
        </mxCell>
      </root>
    </mxGraphModel>
  </diagram>
</mxfile>
